<?xml version="1.0" encoding="utf-8"?>
<!-- Generator: Adobe Illustrator 22.1.0, SVG Export Plug-In . SVG Version: 6.00 Build 0)  -->
<svg version="1.1" id="Capa_1" xmlns="http://www.w3.org/2000/svg" xmlns:xlink="http://www.w3.org/1999/xlink" x="0px" y="0px"
	 viewBox="0 0 575.4 575.4" style="enable-background:new 0 0 575.4 575.4;" xml:space="preserve">
<style type="text/css">
	.st0{fill:#7B95A8;}
</style>
<g>
	<g>
		<path class="st0" d="M534.2,180.9c-2.3-11-23.8-26.2-34.9-30.8c0,0-2.9-7.6-9.9-10.5s-15.7-31.4-15.1,3.5c0,0-19.2-9.9-28.5-9.9
			c0,0-7.6,13.4,0,27.9c0,0-13.4,5.8-34.3,15.7s-66.8,8.1-113.3-10.5s-97.7-19.8-127.3,5.8c0,0-41.8,9.9-52.9,23.3
			c-11,13.4-73.8,30.2-99.4-16.3s-20.3,18-10.5,32.6s44.2,79.1,134.8,18.6c0,0,6.4,38.4,36,50s29.6,48.8,27.3,57s2.9,40.7,0,50
			s19.2,25.6,24.4,55.2c0,0-0.6,15.7,13.4,0c0,0,2.9,6.4,11.6,2.3c0,0,13.4,6.4,15.7-5.8c2.3-12.2,2.3-16.3-10.5-25
			s-43.6-47.7-19.8-68.6s28.5-26.2,28.5-53.5c0,0,44.2,9.9,51.7,28.5c0,0-3.5,31.4-5.2,36.6s-41.9,7.6-52.9,35.5c0,0,0.6,7,5.8,6.4
			c0,0,2.3,11,8.1,7c5.8-4.1,25-18.6,44.8-18s17.4-16.3,20.9-22.1c3.5-5.8,9.3-22.7,9.3-25c0,0,15.7,17.4,14.5,26.7
			c-1.2,9.3-7,8.1-13.4,9.3c-6.4,1.2-20.9,12.8-18.6,18c0,0-12.8,15.1-4.7,15.1s30.8-7,38.9-14.5c8.1-7.6,26.7-7.6,25.6-24.4
			c-1.2-16.9-3.5-36-3.5-36s65.7-30.8,87.2-61s29.6-38.4,50.6-33.1c20.9,5.2,24.4-1.7,24.4-1.7s26.2-15.1,21.5-27.3
			C574.9,211.7,536.5,192,534.2,180.9z"/>
	</g>
</g>
</svg>
