<svg height='100px' width='100px'  fill="#000000" xmlns="http://www.w3.org/2000/svg" viewBox="0 0 128 128" x="0px" y="0px"><g><path d="M88.916,60.763a.655.655,0,0,1-.45.8,1.089,1.089,0,0,1-1.064-.321.887.887,0,0,1-.135-1.1.667.667,0,0,1,.884-.231.72.72,0,0,1,.3.416A.62.62,0,0,1,88.916,60.763Z"></path><path d="M110.612,35.336a.844.844,0,1,1,0,1.688h-.562c-.563,0-.563-1.688,0-1.688Z"></path><path d="M22.69,73.626c.011.017.017.033.028.05C22.78,73.778,22.768,73.665,22.69,73.626Zm2.993,34.941c-.006,0-.017.017-.045.1a.076.076,0,0,1-.011.034.694.694,0,0,1,.264.039c.169-.309.4-.6.512-.861.332-.765,1.446-.107,1.12.653a2.856,2.856,0,0,1-.208.366,1.143,1.143,0,0,0,.219-.214c.209-.259.248-.6.484-.866a1.354,1.354,0,0,1,.4-.265c.1-.056.169-.242.236-.332.112-.141.225-.225.3-.343a.65.65,0,0,1-.112-.129c-.456-.71-.18-1.615-.18-2.414,0-1,.123-1.987.185-2.977,0-.006.006-.011.006-.017a13.35,13.35,0,0,1-.355-3.095,7.426,7.426,0,0,1,1-4.715c.067-.112.141-.219.219-.326a10.03,10.03,0,0,0-.084-2.459,6.714,6.714,0,0,1-.225-1.857c.124-.979.427-1.935.579-2.909a1.739,1.739,0,0,1-.585-.517,1.124,1.124,0,0,1-.2-.828c-.04,0-.073.006-.113.006a1.351,1.351,0,0,1-.793-.382,1.16,1.16,0,0,1-1.03-.721,4.105,4.105,0,0,0-.619-.877,3.518,3.518,0,0,1-1.452.005,1.594,1.594,0,0,1-.917-.692,4.712,4.712,0,0,1-.546.889.534.534,0,0,1,.22.49c-.045.906,1.058,1.412,1.294,2.267a6.322,6.322,0,0,0,.5,1.812c.523.895.113,2.571.253,3.534a21.586,21.586,0,0,1,.4,2.987,30.073,30.073,0,0,0,.63,6.955,4.928,4.928,0,0,1-.157,3.5.6.6,0,0,1-.147.168,4.88,4.88,0,0,1-.849,1.958,6.664,6.664,0,0,1-.67.856.635.635,0,0,1,.7.456.7.7,0,0,1-.18.652C25.649,108.686,25.683,108.584,25.683,108.567ZM26.4,81.379c-.045,0-.034-.095-.113-.2A1.02,1.02,0,0,0,26.128,81a1.089,1.089,0,0,0-.338-.321c-.152-.079-.293-.174-.433-.265-.113.1-.237.192-.355.3a1.569,1.569,0,0,0,.58.714A1.325,1.325,0,0,0,26.4,81.379Zm9.543-17.33a5.331,5.331,0,0,0-2.156.326c-.326.124-.613.518-.956.586a1.709,1.709,0,0,1-.72.061.6.6,0,0,1-.04.085.7.7,0,0,1-.934.236,1.547,1.547,0,0,0-.529-.208c-.017.1-.039.191-.061.281a1.893,1.893,0,0,1,1.114.833c.135.22.078.524.2.726a1.955,1.955,0,0,1,.327.54,9.091,9.091,0,0,1,.3,1.486.586.586,0,0,1-.062.3,5.208,5.208,0,0,1,.669,1.491c.113.517-.286.776.017,1.13.833.985.231,2.172-.534,2.971a.6.6,0,0,1-.366.2,2.7,2.7,0,0,1,.191.541.86.86,0,0,1-.27.872.752.752,0,0,1-.3.146.973.973,0,0,1,.057.146c.033.191.1.372.118.569a.981.981,0,0,1-.5,1.007.539.539,0,0,1-.3.095,1.538,1.538,0,0,1-.382,1.075.924.924,0,0,1-.405.31v.028c.056.832-1.238.827-1.294,0-.04-.6.152-1.115.759-1.193.006-.006.006-.006.011-.006a.339.339,0,0,0,.045-.124c.017-.107-.112-.247-.163-.32-.416-.608.394-1.176.918-.85v-.006a1.164,1.164,0,0,1-.063-.242c-.039-.129-.095-.259-.134-.393a.993.993,0,0,1,.129-.985.753.753,0,0,1,.377-.192c-.084-.123-.13-.2-.276-.225-.821-.129-.473-1.378.343-1.249a1.218,1.218,0,0,1,.428.164.64.64,0,0,1,.163-.276c.456-.479.743-.951.186-1.525a1.029,1.029,0,0,1-.281-.867c.056-.326.242-.5.208-.838-.034-.366-.445-.726-.591-1.052a.651.651,0,0,1,.028-.613.513.513,0,0,1-.022-.09,8.461,8.461,0,0,0-.619-1.812c-.085-.3-.04-.45-.4-.54a2.811,2.811,0,0,0-.681-.1.656.656,0,0,1-.281-1.232.033.033,0,0,1,.006-.023c.607-1.164-.1-.461-.709-.63-.54-.152-.7-.7-.811-1.17-.073-.276-2.695.922-4.253,1.626a5.06,5.06,0,0,1,.286.641c.479.1.974.1,1.261.568a2.674,2.674,0,0,1,.231,1.351.985.985,0,0,0,.112.017,1.111,1.111,0,0,1,.276.05.855.855,0,0,1,.478.361,1.367,1.367,0,0,1,.208.607c.029.248.321.484.467.67.518.647-.394,1.564-.917.917a4.252,4.252,0,0,1-.8-1.221.577.577,0,0,1-.033-.124c-.034,0-.068,0-.1-.011a1.083,1.083,0,0,1-.563-.242,1.017,1.017,0,0,1-.168-.186,6.856,6.856,0,0,1-.236,1.677,3.458,3.458,0,0,1-2.133,2.577,1.393,1.393,0,0,0,.152.062,1.032,1.032,0,0,1,.726.776.721.721,0,0,1,.489.811.616.616,0,0,1,.023.112,5.182,5.182,0,0,0-.006.788c0,.006.028.113.039.174.293-.405,1.058-.405,1.165.175a2.982,2.982,0,0,0,.2,1c.107.174.062.208.152.213h.005a1.025,1.025,0,0,1,.473-.14c.073,0,.14.011.214.017a4.046,4.046,0,0,0,.028-.94.65.65,0,0,1,.613-1.131c0-.028.04-.062.135-.112a1.779,1.779,0,0,1-.028-.3,1.684,1.684,0,0,1,.169-.686c.225-.371.7-.7.326-1.131-.54-.624.371-1.547.917-.917a1.836,1.836,0,0,1,.529,1.418,1.59,1.59,0,0,1-.281.776c-.09.118-.377.383-.366.54a1.844,1.844,0,0,1-.72,1.536,3.059,3.059,0,0,1-.2,1.627,1.124,1.124,0,0,1-.58.568.639.639,0,0,1-.23.034A2.128,2.128,0,0,1,25.7,79.1c.253.141.5.316.743.462a2.934,2.934,0,0,1,.776.715,1.706,1.706,0,0,1,.411,1.541c.157.231.422.36.579.6.124.191.163.4.27.568a.973.973,0,0,1,.439.1c.079.045.237.253.259.236a2.1,2.1,0,0,1,1.722.045,1.545,1.545,0,0,1,.867.94c1.08.4,2.363.929,3.359.568a7.278,7.278,0,0,1,2.565-.2,7.2,7.2,0,0,0,2.724-.456c-.074-.146-.147-.3-.225-.444-.276-.512-.158-1.171-.468-1.688a.656.656,0,0,1,.231-.884.982.982,0,0,0-.326-1.086c-.495-.675.63-1.322,1.12-.652a2.024,2.024,0,0,1,.337,2.4,12.332,12.332,0,0,1,.7,1.548,5.927,5.927,0,0,0,.484-.451,2.307,2.307,0,0,1,1.4-.59c.057-.22.113-.422.164-.608l-.034-.068a11.842,11.842,0,0,1-.349-2.042,11.667,11.667,0,0,1-.416-1.823,2.667,2.667,0,0,1-1.345-1.283,7.291,7.291,0,0,1-1.007-2.127,8.014,8.014,0,0,1-.068-2.481,6.3,6.3,0,0,1-.365-2.892,2.9,2.9,0,0,1,.3-.833,3.879,3.879,0,0,0-1.069-.821.639.639,0,0,1-.321-.558c.011-.849-.36-.607-.81-1.305a.853.853,0,0,1-.006-.732C38.394,64.645,35.614,64.049,35.941,64.049Zm53.093-.242c0,.023-.141-.017-.2-.011-.084.005-.169.011-.253.022-.192.017-.794.079-.585.316a.652.652,0,0,1,.168.41,1.643,1.643,0,0,0,1.025-.107.129.129,0,0,0,.039-.022.645.645,0,0,1-.085-.293A.687.687,0,0,0,89.034,63.807Zm-41.8,11.507c.006-.034.011-.073,0-.079a1.153,1.153,0,0,0-.479-.006c-.124.006-.613.214-.5.327a1.734,1.734,0,0,0,.6.354c.011,0,.023,0,.034,0,.157-.006.135.033.169-.136a1.48,1.48,0,0,1,.14-.388c.006,0,.017-.017.023-.045A.038.038,0,0,0,47.233,75.314ZM52.055,80.8a.017.017,0,0,0-.005.011.647.647,0,0,1,.236-.883.586.586,0,0,1,.585-.012,1.964,1.964,0,0,0,.2-.191c.129-.163.253-.332.4-.495a.652.652,0,0,1,.911,0,.659.659,0,0,1,0,.917c-.062.067-.2.27-.3.377s-.2.22-.31.326a1.7,1.7,0,0,1-.461.31,1.684,1.684,0,0,1-.264.6,3.663,3.663,0,0,1-1.716,1.227.592.592,0,0,1-.169.028,2.425,2.425,0,0,1-2.347,1.958c-.8,0-2.008-.18-2.318-1.03a.6.6,0,0,1-.259-.09,8.854,8.854,0,0,1-1.373-.715,1.839,1.839,0,0,0,1.159,2.2c.884.365.749.945,1.857,1.367a2.207,2.207,0,0,0,.31.073c.315-.49,1.03-.557,1.7-.6a7.707,7.707,0,0,0,1.744-.377,1.671,1.671,0,0,1,.715-.074c.478-.523.281-1.215.624-1.806a.875.875,0,0,1,.636-.36c.411-.09.282-.546.276-.878,0-.022.011-.033.011-.05a.646.646,0,0,1-.011-.09.66.66,0,0,1,.647-.648,1.529,1.529,0,0,0,.686-.314.559.559,0,0,1,.029-.091c0-.061,0-.118,0-.179,0-.152,0-.3,0-.456a.586.586,0,0,1,.152-.411.594.594,0,0,1,.59-.422c.293-.006.512-.411.557-.687a2.2,2.2,0,0,0-.106-.934.648.648,0,0,1,1.249-.343,2.789,2.789,0,0,1-.147,2.228,2.007,2.007,0,0,1-1,.929,1.562,1.562,0,0,1-.473,1.328,3.012,3.012,0,0,1-.883.489,1.758,1.758,0,0,1-.383,1.334,1.663,1.663,0,0,1-.72.377,3.628,3.628,0,0,1-.771,1.857,1.063,1.063,0,0,1-.067.393,3.978,3.978,0,0,1,.635-.078,4.242,4.242,0,0,0,2.015-.754.659.659,0,0,1,.889.23c0,.006,0,.006.005.012a3.242,3.242,0,0,0,.749-1.137A.609.609,0,0,1,58.279,85c.225-.636.326-1.3,1.063-1.637.647-.3.3-1.17.6-1.688.276-.478.895-.462,1.26-.844.574-.6,1.491.315.912.917a1.931,1.931,0,0,1-.754.535c-.405.146-.31.281-.36.692a1.918,1.918,0,0,1-.664,1.305c-.107.1-.591.242-.608.36a2.482,2.482,0,0,1-.225.8c-.09.2-.191.405-.3.607a.627.627,0,0,1,.017.631c-.225.444-.411.512-.264,1.035a1.928,1.928,0,0,1,.152,1.047c-.2.557-.732.7-.574,1.356a.615.615,0,0,1-.3.7.578.578,0,0,1-.276.309c-.152.09-1,.405-.8.709a1.391,1.391,0,0,1,.371.889.657.657,0,0,1-.472.625c-.073.011-.147.022-.214.028,0,.006.006.011.006.017a.645.645,0,0,1,.45.456c.208,1.254-1,2.577-1.908,3.291-1.029.811-1.4,1.874-2.228,2.842a19.134,19.134,0,0,1-2.341,2.194.623.623,0,0,1-.4.163,3.239,3.239,0,0,1-.658.479c-.343.185-.383.365-.417.753a3.28,3.28,0,0,0-.062,1.182,2.015,2.015,0,0,1,.124-.574.666.666,0,0,1,.8-.45.643.643,0,0,1,.45.794.6.6,0,0,0-.067.275.323.323,0,0,0,0,.051.436.436,0,0,0,.13-.017c.028-.011.05-.023.079-.034a.339.339,0,0,0,.107-.152.873.873,0,0,1,.2-.287c-.012-.157-.029-.32-.034-.478a.569.569,0,0,1,.275-.517.541.541,0,0,1,.327-.417c2.774-1.3,5.7-3.05,7.455-5.632.535-.782,2.009-1.356,2.189-2.33.079-.427-.321-.793-.377-1.266a.559.559,0,0,1,.169-.613c.495-.473-.169-.99-.158-1.457a5.525,5.525,0,0,1,.085-.743c.095-.54-.006-1.21.14-1.733a.772.772,0,0,1,.765-.535c-.033-.022-.016-.118-.084-.388a2.515,2.515,0,0,0-.36-.844.7.7,0,0,1-.13-.276.047.047,0,0,0,0-.028.8.8,0,0,1,0-.23,1.285,1.285,0,0,1,.034-.141.642.642,0,0,1,.107-.76,2.594,2.594,0,0,1-.034-.3c-.017-.213.107-.427.107-.652a1.514,1.514,0,0,0-.2-.692c-.343-.754.776-1.413,1.12-.653a2.754,2.754,0,0,1,.365,1.137,17.51,17.51,0,0,0,2.645-3.568c.894-1.648,2.127-3.162,2.324-5.058A4.018,4.018,0,0,0,67.349,76a.561.561,0,0,1-.225-.112.636.636,0,0,1-.676-.282A9.25,9.25,0,0,0,65,74.194c-.585-.518-1.345-1.249-2.172-1.227a.915.915,0,0,1-.877-.438,1.134,1.134,0,0,0-1.244-.327.637.637,0,0,1-.8-.579c-.663-.693-2.638-1.064-2,.287a2.7,2.7,0,0,1,.22,2.014c-.124.427-.09.208.05.495a1.886,1.886,0,0,1,.253.827,1.775,1.775,0,0,1-1.046,1.531c-.732.405-1.39-.709-.659-1.114s-.095-.929-.056-1.413c.028-.321.124-.6.18-.922a2.043,2.043,0,0,0-.281-1.036c-.22-.079-.535-.27-.535-.574v-.005c-.562-.529-.59-1.238-1.125-1.835a8.891,8.891,0,0,0-.776-.906c.005.09.016.175.016.259a.647.647,0,0,1-1.294,0,1.161,1.161,0,0,0-.5-1.091,4.156,4.156,0,0,1-.905-.653.648.648,0,0,1-.062-.793,1.386,1.386,0,0,1,.05-.13c.3-.6.22-1.041-.253-1.322-.208-.084-.422-.175-.636-.259a4.018,4.018,0,0,1,.062.827.674.674,0,0,1-.844.625,20.087,20.087,0,0,0-3.871-.473c.017.771-1.215.743-1.294-.056-.237-2.481-.467-.6-.81-.051-.383.619-1.047.918-1.34,1.626-.331.805-1.041,1.205-.922,2.217a9.52,9.52,0,0,0,.236,1.2.65.65,0,0,1,.416.3,1.319,1.319,0,0,0,1,.821.979.979,0,0,1,.608.6c.135.4.18.214.5.1a6.681,6.681,0,0,1,.856-.22,4.671,4.671,0,0,1,1.322-.118s.011.006.017.006c.54-.011.382-.31.968-.647a.931.931,0,0,1,.889-.056A2.4,2.4,0,0,1,47.6,70.8c-.326-.524-.608-.861-.489-1.509a2.706,2.706,0,0,1,.635-1.159,2.291,2.291,0,0,1,1.362-.455,1.428,1.428,0,0,1,1.165.416c.371.315.315.883.315,1.311a2.055,2.055,0,0,1-.073.664c-.079.2-.186.174-.209.574a.661.661,0,0,1-.32,1.215,3.224,3.224,0,0,1-1.52-.095c.051.033.1.056.147.09A1.976,1.976,0,0,1,49,72.32c.034.04,1.3-.073,1.35-.073a12.126,12.126,0,0,0,2.212-.112.651.651,0,0,1,.112-.012c0-.022-.005-.05-.005-.073a1.2,1.2,0,0,1,.579-1.063,1.382,1.382,0,0,1,2.138.973,5.924,5.924,0,0,1-.287,2.476,7.027,7.027,0,0,1-.568,1.924,15.574,15.574,0,0,1-3.01,2.853.685.685,0,0,1-.276.141,4.079,4.079,0,0,1,.045.613c0,.54.011,1.086.006,1.626a2.023,2.023,0,0,0,.568-.422c.135-.146.141-.124.18-.3A.366.366,0,0,0,52.055,80.8Zm-34.773-.349a2.647,2.647,0,0,1-.838.523A5.077,5.077,0,0,0,14.2,82.285a13.858,13.858,0,0,1-3.038,2.093,9.322,9.322,0,0,1-.9.338.62.62,0,0,1,.186.416c.023.315.107.833.529.569.247-.158.489-.327.731-.49.574-.371,1.3-.585,1.9-.917a.6.6,0,0,1,.659.022c.022-.033.039-.061.045-.073a16.8,16.8,0,0,1,2.633-3.415C17.153,80.586,17.26,80.479,17.282,80.451Zm49.24,25.686c-.017,0,.022-.152.022-.186a.355.355,0,0,0,.017-.068.6.6,0,0,1,.3-.585c1.046-.624.759-1.125,1.018-2.053.231-.839.884-1.43.912-2.358s.489-1.733.472-2.718a16.615,16.615,0,0,1,.107-2.633c-.551-.54-.3-1.333-.079-2.127a1.164,1.164,0,0,1-.737-.765c-.163-.529-.084-1.885-.545-1.919-.929-.073-.872-.962-.822-1.7a1.272,1.272,0,0,1-1.03-.039c-.467-.276-.54-.765-.7-1.221a2.134,2.134,0,0,1-.293.158,1.585,1.585,0,0,1-.518,1.024,2.735,2.735,0,0,1-.393.27c.422,2.419,1.716,4.017,3.061,6.048a1.56,1.56,0,0,1,.152,1.919c-.259.6.208.827.061,1.345a13.525,13.525,0,0,1-.529,1.6c-.528,1.333-1.029,2.678-1.6,4a.672.672,0,0,1-.1.158.621.621,0,0,1-.422.608c-.3.106-.411.737-.411,1.018v.27a1.853,1.853,0,0,0,.389.056v0a1.526,1.526,0,0,1,.2-.253.615.615,0,0,1,.456-.552.649.649,0,0,1,.8.45,1.215,1.215,0,0,1,.017.344C66.454,106.187,66.471,106.2,66.522,106.137Zm-.839.107c-.05-.012-.067,0,0,0ZM97.963,84.75a.675.675,0,0,1,.1-.315c0-.023-.011-.034-.011-.057-.045-1.941.095-3.871.095-5.812,0-1.536-.416-2.96-.281-4.5a4.771,4.771,0,0,1,1.125-2.988c1.232-1.525,1.075-3.269,1.12-5.109-.017-2.02-.219-2.943-1.587-4.2-.968-.889-1.17-1.845-2.746-1.62-.956.141.36,3.657.428,4.546a9.385,9.385,0,0,1-2.859,6.831,5.841,5.841,0,0,1,.276,1.626l.023.023a3.966,3.966,0,0,1,1.688.506c.855.529.821,2.268.821,3.1,0,1.947.5,3.793.343,5.723-.061.782-.286,1.519-.326,2.3a1.077,1.077,0,0,1,.1-.135.644.644,0,0,1,1.087.546,1.7,1.7,0,0,0,.326-.135.726.726,0,0,0,.185-.186C97.885,84.885,97.963,84.682,97.963,84.75Zm8.294-15.266a1.677,1.677,0,0,1-.765.332.654.654,0,0,0-.236.119.8.8,0,0,1-.265.14.08.08,0,0,1,0,.034,53.537,53.537,0,0,0-.389,8.012,12.109,12.109,0,0,1-.63,3.714,1.074,1.074,0,0,1-.231,1.649,1.646,1.646,0,0,1-.86.135,1.907,1.907,0,0,1-2.251.2.647.647,0,0,1-.321-.563c.214-2.3.7-4.231.434-6.527-.175-1.508.281-3.258-.676-4.614a5.053,5.053,0,0,0-.934,2.853c.113,3.134.152,6.262.22,9.413a.578.578,0,0,1-.1.338.1.1,0,0,1,0,.039,1.747,1.747,0,0,1-.478,1.081,2.475,2.475,0,0,1-.889.562,1.465,1.465,0,0,1-1.3.141.658.658,0,0,1-.186-.163,1.592,1.592,0,0,1-.776.27.637.637,0,0,1-.557-.321,2.368,2.368,0,0,1-.192-.692.758.758,0,0,1-.2.051c-.411.034-1.013.073-1.216-.405a1.556,1.556,0,0,1-.095-1.227c.185-.439.838-.709.906-1.154a9.915,9.915,0,0,1,.714-1.693,1.108,1.108,0,0,1,.079-.158c-.023-.348-.056-.7-.1-1.074-.056-.467.017-1.368.022-2.3a.732.732,0,0,1-.208-.152c-.214-.236-.546-.326-.748-.568a4.734,4.734,0,0,1-.625-1,2.873,2.873,0,0,1-.4-1.137,1.153,1.153,0,0,0-.051-.287c-.478-.039-.94-.084-1.407-.163-.005.715-.354,1.452-.354,2.318,0,2.47.281,4.924.281,7.377,0,1.378,1.429,5.272-1.316,4.923a1.342,1.342,0,0,1-2.51-.765c0-3.106.771-7.219-.608-10.207a2.07,2.07,0,0,0-.067.36,2.513,2.513,0,0,1-.332.828c1.755,1.732-4.732,6.515-4.619,1.513.022-.985.978-2.228,1.192-3.241.2-.99.636-1.908-.2-2.543-.186-.141-.6-.355-.636-.642-.09-.641.2-.8-.152-1.108-.034-.034-.062-.062-.1-.09a13.066,13.066,0,0,0-1.508-.169.989.989,0,0,1-.129.135.7.7,0,0,1,.084.174c.338,1.1.1,2.2.388,3.281a7.535,7.535,0,0,1,.383,2.048c0,.973.54,1.975.473,2.909s-.1,1.868-.1,2.813a.642.642,0,0,1-.05.237,1.133,1.133,0,0,1,.05.326,9.883,9.883,0,0,1-.084,2.116.92.92,0,0,1-.76.641c-.09.017-.186.028-.281.04-.141.005-.135.005.006.011a.794.794,0,0,1-.467.18,1.913,1.913,0,0,1-1.109-.169.821.821,0,0,1-.259-.259.682.682,0,0,1-.225.056A1.963,1.963,0,0,1,76.959,87a.627.627,0,0,1-.169-.63c.349-.963,1.351-2.51,1.266-3.495a13.628,13.628,0,0,0-.7-2.352c-.495-1.862-.58-4.642-1.542-6.341a.873.873,0,0,1-1.052-.157c-1.53,1-3.387,1.153-5.1,1.789,2.1,1.784,2.6,5.041,2.909,7.708a8.493,8.493,0,0,1-.219,3.27,26.374,26.374,0,0,0-.248,3.876,18.629,18.629,0,0,1-.349,3.27c-.219.81-.866,1.361-1.08,2.2a.551.551,0,0,1-.113.242c-.213,2.082.057,4-.838,6.01a4.828,4.828,0,0,0-.557,1.857,2.167,2.167,0,0,1-.112.81,2.485,2.485,0,0,1-1.25,1.2,1.4,1.4,0,0,1-.652,1.03,2.442,2.442,0,0,1-1.176.253,1.843,1.843,0,0,1-.715-.079.572.572,0,0,1-.321.079,2.768,2.768,0,0,1-1.367-.32c-.495-.293-.495-.8-.495-1.306a2.5,2.5,0,0,1,1.153-2.144.81.81,0,0,1,.057-.3c.619-1.429,1.041-3,1.688-4.406.461-.99-.282-1.581.377-2.532.422-.607-2.392-3.308-2.656-4.248-.242-.849-.5-1.738-.67-2.622-.005.006-.017.006-.028.011a2.334,2.334,0,0,1-.6.152,8.45,8.45,0,0,0,.079,2.3,1.985,1.985,0,0,1-.287,1.716c.011.067.467.63.467.906a2.6,2.6,0,0,1-.3,1.17c-.591,1.007-1.773,1.682-2.493,2.605-.169.22-.354.428-.54.631a3.728,3.728,0,0,1,.681,3.055,14.627,14.627,0,0,1-.625,3.162.546.546,0,0,1-.067.439c-.366.546-.979,1.221-1.671,1a1.361,1.361,0,0,1-.861.259c-.535,0-1.356-.039-1.559-.664-.264-.821.242-1.35.372-2.127a5.46,5.46,0,0,0-.108-1.924,28.882,28.882,0,0,1-3.111,1.694,2.752,2.752,0,0,1-.034,1.176,1.192,1.192,0,0,1-1.086.8,1.044,1.044,0,0,1-.568.2,3.449,3.449,0,0,1-.349-.039.546.546,0,0,1-.495.225,1.708,1.708,0,0,1-1.834-1.615.543.543,0,0,1-.034-.642,4.533,4.533,0,0,1,.354-1.789c.237-.506.884-.619,1.244-1a.6.6,0,0,1,.439-.2,15.013,15.013,0,0,0,2.706-2.97,2.425,2.425,0,0,1-.658-.867c-.079-.191-.152-.371-.22-.563a.02.02,0,0,1-.016,0c-.113-.006-.231-.023-.344-.04-.894-.174-1.271-1.119-1.558-1.924a.628.628,0,0,1-.45-.293c-1.03-1.6-2.251-3.117-3.3-4.715-.259-.394-.518-.759-.754-1.131a.6.6,0,0,1-.355.118c-.562.006-1.041.214-1.586.27a13.144,13.144,0,0,1-1.576.017,4.379,4.379,0,0,1-.321.535c-1.266,1.8-3.494,3.207-5.154,4.6a16.89,16.89,0,0,1-2.588,2.031c0,.011.006.017.006.028,0,.349-.079.692-.09,1.041a5.694,5.694,0,0,1-.073.805,1.872,1.872,0,0,1,.6.573,2.514,2.514,0,0,1,.326,1.3,1.3,1.3,0,0,1-.354.743.511.511,0,0,1-.023.4.591.591,0,0,1,.023.406,1.261,1.261,0,0,1-1.092.922,1.639,1.639,0,0,1-.467-.022.47.47,0,0,1-.056.05,2.176,2.176,0,0,1-2.459.186c-.017.439-.022.878-.022,1.317v1.406c0,.248-.248.462-.1.7h.006a.565.565,0,0,1,.27.512,1.558,1.558,0,0,1-.473,1.243c-.259.209-.349.574-.647.743-.624.343-.687,1.5-1.542,1.62-.608.079-1.344.169-1.744-.3-.619.275-1.553.365-1.773-.462l-.016-.09c-.366.377-1.154.253-1.1-.405.163-2.02,2.419-2.909,2.436-4.968a.608.608,0,0,1,.422-.591c.434-1.457-.495-4.361-.68-5.711-.282-2.11-.113-4.265-.468-6.375-.151-.9.3-2.707-.253-3.371-.253-.3-.636-.7-.624-1.125.028-1.232-1.036-1.975-1.187-3.095a11.668,11.668,0,0,1-1.644.631,22.316,22.316,0,0,0-3.376,1.423A4.523,4.523,0,0,1,12.5,88.317c-1.283.844-3.477,1.03-3.258-.883a.6.6,0,0,1-.186-.428c-.011-.349-.287-.681-.287-1.03V85.07a5.875,5.875,0,0,1-3.8-.506c-1.71-1-.827-2.549.107-3.725A.566.566,0,0,1,5.5,80.4c.011-.006.023-.017.034-.023.467-.591,1.035-1.1,1.5-1.694A4.713,4.713,0,0,0,7.908,77.2a1.308,1.308,0,0,0-.157-1.086.836.836,0,0,1,.129-.985c.22-.551.124-1.311.372-1.885a7.3,7.3,0,0,1,1-1.7,10.8,10.8,0,0,1,1.7-2.009,10.2,10.2,0,0,0,1.362-1.142,4.75,4.75,0,0,1,.529-3.832,11,11,0,0,1,1.834-2.009c.394-.382.507-1.046.985-1.328,1.277-.748,2.144,1.463,2.329,2.279a4.163,4.163,0,0,1,.079.934,1.751,1.751,0,0,1,.85-.219c.225,0,.45,0,.675.017.248.017.467.163.709.18a.64.64,0,0,1,.472.259,3.411,3.411,0,0,1,1.03-.231.707.707,0,0,1,.2-.1A24.225,24.225,0,0,0,24.226,63.2c.765-.316,1.592-.552,2.374-.822.754-.259,2-.619,2.273.484a2.152,2.152,0,0,1,.062.411c.051-.057.158-.107.394-.1a1.215,1.215,0,0,1,1.1.585,1.656,1.656,0,0,1,.866.146.84.84,0,0,1,.726-.337,6.78,6.78,0,0,0,1.716-.54,6.035,6.035,0,0,1,5.779,1.2.688.688,0,0,1,.174.327,5.852,5.852,0,0,1,1.627-.045,2.689,2.689,0,0,1,1.446.433c.23-.619.607-1.716,1.457-1.413a2.3,2.3,0,0,1,1.328,1.12,17.1,17.1,0,0,1,3.7.327,1.25,1.25,0,0,1,.276-1.081c.416-.416,1.136-.281,1.654-.208a3.331,3.331,0,0,1,1.677,1.452,1.934,1.934,0,0,1-.051,1.525h.034c5.2.472,10.432.748,15.665.748.883,0,1.772,0,2.656-.006a.589.589,0,0,1,.3-.371c.287-.163-.315-1.474-.321-1.761-.006-.479,0-.957,0-1.435a11.82,11.82,0,0,1,.377-1.407c0-.011.006-.022.006-.033a.932.932,0,0,1-.2-.619c0-.563-.135-1.289-.169-1.964-.028-.6-.225-1.126-.248-1.711a2.324,2.324,0,0,1,1.047-1.7c.72-.422,1.283.158,1.677.71.247.343.579.59.838.928a4.248,4.248,0,0,0,1.047,1.17c1.192-.883,1.288-3.23,2.807-3.646,1-.276,1.339,1.294,1.57,1.992.276-.2.552-.4.816-.619a1.147,1.147,0,0,1,1.182-.231c1.2-.934,2.672-.855,4.124-.748.011-.191.017-.394.011-.608-.017-.332.057-.872.4-1.046,1.513-.777,2.571.495,3.168,1.772.033,0,.067-.005.1-.005.529,0,2.183,1.023,2.537.32a1.616,1.616,0,0,1,.794-.8c2.391-1.193,1.885,1.986,1.75,3.438a2.276,2.276,0,0,1,2.194-.186c.7-1.744,1.519-3.376,2.138-5.137-1.941-.1-1.305-1.356-1.17-3.021a52.762,52.762,0,0,0-.332-7.264,7.016,7.016,0,0,1-1.018-.642C95.055,41.6,94.07,40.406,94.6,38.29a17.436,17.436,0,0,0,.1-3.792c.028-.653.827-1.458.439-2.11a1.647,1.647,0,0,1,.484-2.054,2.258,2.258,0,0,1-.664-.625,6.272,6.272,0,0,1-.917-2.07c-.242-.906.326-1.1-.49-1.874a3.953,3.953,0,0,1-1.029-2.987c-.057-2.6.905-5.093,3.646-5.3.59-.045.939-.67,1.547-.461a4.386,4.386,0,0,1,3.55-.552,8.169,8.169,0,0,1,3.962,2.133,18.431,18.431,0,0,1,1.626,2.262,1.18,1.18,0,0,1,.174.562,2.357,2.357,0,0,1,1.907,1.79,8.753,8.753,0,0,1,.293,1.209,1.232,1.232,0,0,1,.259-.039c2.813,0,8.226.467,9.965,3.382.748,1.254.3,3.556.692,4.968.433,1.575-.186,3.218-.653,4.659a1.055,1.055,0,0,1-.062.141,2.161,2.161,0,0,1,.242.455,1.869,1.869,0,0,1-.832,2.262c4.281,2.628,1,9.853.579,13.656-.619,5.543-1.666,11.181-1.114,16.779a11.459,11.459,0,0,0,1.637-.833c.867-.551,1.593-1.3,2.476-1.817a.655.655,0,0,1,.883.236,5.045,5.045,0,0,1,.535,1.626.637.637,0,0,1-.146.979c-2.51,1.514-4.974,3.14-7.6,4.49-1.148.591-2.645,2.026-4.091,1.334-1.2-.58-1.919-2.436-2.1-3.691-.169-1.176-.208-2.876-.489-4.3-.011,0-.017.006-.023.006-.731-.051-1.463-.068-2.194-.113-.085-.006-.169-.028-.259-.039a.824.824,0,0,1-.1.518.782.782,0,0,1-.36.314C106.449,69.417,106.212,69.541,106.257,69.484Zm16.289.58c-.033-.152-.073-.309-.106-.467a9.182,9.182,0,0,1-1.846,1.373c-.923.416-1.834.878-2.768,1.289-1.03.455-2.994,1.879-4.2,1.586-2.8-.669-1.817-4.411-2.611-6.453a.88.88,0,0,1-.033-.119c-.265-.141-.535-.287-.8-.433a11.6,11.6,0,0,1,.512,3.1,19.1,19.1,0,0,0,1.474,5.081c.692,1.7,4.591-1.936,5.486-2.234A22.542,22.542,0,0,0,122.546,70.064Zm-3.291-21.41c.568-2.408.692-6.178-1.367-7.432a12.113,12.113,0,0,1-1.238,1.327,6.225,6.225,0,0,1,.14,3.18c-.084.444-.112.945-.18,1.434a1.42,1.42,0,0,1,.113,1.087,1.3,1.3,0,0,1-.085.14Q117.946,48.518,119.255,48.654Zm-.6,2.128c.068-.293.147-.58.237-.867-5.627-.6-11.276-1-16.886-1.812-.056.191-.107.388-.157.58,0,.005.011.005.022.005,2.481.58,5.2.557,7.726.94,2.728.411,5.486.585,8.226.872a.62.62,0,0,1,.8.248Zm-.236-14.366a16.316,16.316,0,0,0,.051-6.228c-.332-2.768-2.071-3.393-4.378-3.928a43.547,43.547,0,0,0-4.608-.585c-.034,0-.056-.011-.084-.011.039.439.067.872.067,1.243a2.883,2.883,0,0,1-.377,1.7c-.242.36-1.181,1.356-1.238,1.564-.242.945-.906.681-1.474,1.221-.608.574-1.525-.338-.917-.912.107-.106,1.148-.652,1.148-.652a2.129,2.129,0,0,1,.787-1.317c1.024-.85.749-1.806.524-2.937-.147-.737.022-2.149-.777-2.707a1.181,1.181,0,0,0,.073.169,2.739,2.739,0,0,1-.208,2.538v.011a1.557,1.557,0,0,1,.028.186c0,.562.3,2.43-.664,2.982-.461.264-.894.5-1.344.771a2.608,2.608,0,0,1-1.525.276.56.56,0,0,1-.4.348,2.73,2.73,0,0,1-1.7.585l.1.152c.213.315.365.524.759.529.321.006.619.169.94.186.827.056.833,1.35,0,1.294a4.9,4.9,0,0,1-2.014-.461,2.441,2.441,0,0,1-.7-.743c-.124-.18-.343-.709-.557-.788a.625.625,0,0,1-.208-.124,10.072,10.072,0,0,1-2.735.04.742.742,0,0,1-.118.112c-.957.738-.056,1.48-.259,2.448-.135.664-.76,1.221-.675,2.014a7.882,7.882,0,0,1,.231,1.5c-.22,1.666-.484,5.34,2.155,5.12.45-.039.787.366,1.164.653a1.967,1.967,0,0,1,0-.833c.118-.422.309-.6.185-1.063a2.465,2.465,0,0,1,.569-2.24c0-.005-.006-.005-.006-.011-.174-.81-1.412-1.446-.276-2.172.535-.343.929-.461.659-1.277a2.811,2.811,0,0,0-1.491-1.418c-.738-.388-.085-1.508.652-1.114,1.244.658,2.583,1.947,2.161,3.522a2.016,2.016,0,0,1-.9,1.2.414.414,0,0,1,.05.068c.068.107.13.2.186.3,1.66-1.035,4.023-1.091,4.524.923a.685.685,0,0,1,.006.3,1.574,1.574,0,0,1,.45.253,3.666,3.666,0,0,1,1.277,1.8,2.186,2.186,0,0,1-1.137,2.571.586.586,0,0,1-.472.209l-.282-.017c-.033,0-.056.011-.09.017a.617.617,0,0,1-.332-.079,1.821,1.821,0,0,1-.686-.355.678.678,0,0,1-.124-.135c-.034.023-.062.051-.1.074a1.622,1.622,0,0,1-.647.2c-.107.157-.365.315-.365.467a12.258,12.258,0,0,0-.923,3c4.028.585,8.08.951,12.137,1.333a.593.593,0,0,1,.275-.275,4.21,4.21,0,0,1,.4-.186,2.386,2.386,0,0,0,.112-.411,5.1,5.1,0,0,1-.163-.984c-.05-.889-.028-2.459-.669-3.123a.685.685,0,0,1-.141-.208c-1.48.624-3.05.287-4.653.3a.648.648,0,0,1,0-1.3,22.425,22.425,0,0,1,2.459.04,4.436,4.436,0,0,0,.945.011,1.427,1.427,0,0,1-.434-.36,2.285,2.285,0,0,1-.146-2.178,4.957,4.957,0,0,1,.765-1.3,1.685,1.685,0,0,1,.073-1.868,2.916,2.916,0,0,1-.376-1.773c0-.473.095-.923.1-1.4,0-.09,0-.175,0-.259A.6.6,0,0,0,113,32.9a3.445,3.445,0,0,1-1.092-.878,1.3,1.3,0,0,1-.765.58,3.627,3.627,0,0,1-2.926-.546c-.731-.4-.079-1.519.653-1.114a2.8,2.8,0,0,0,1.643.472c.562-.05.478-.776.478-1.136a.65.65,0,0,1,1.271-.169,3.023,3.023,0,0,0,1.216,1.559c.011-.017.028-.04.034-.04a.005.005,0,0,1,0-.006c.1-.134.2-.275.315-.41s.254-.22.372-.343c.152-.158.292-.327.444-.484.585-.6,1.5.315.917.911a6.929,6.929,0,0,1-.591.63c-.05.045-.1.085-.146.118a3.107,3.107,0,0,0,.67-.174.63.63,0,0,1,.793.417.58.58,0,0,1-.45.725,2.654,2.654,0,0,1-.923.073h-.607c-.006.231.022.586.016.67-.016.2-.073.394-.078.6a7.328,7.328,0,0,0,.011.783,2.906,2.906,0,0,0,.039.3.7.7,0,0,1,.119.089,3.172,3.172,0,0,1,2.385-.089A5.432,5.432,0,0,1,118.422,36.416Zm.011,15.4a.446.446,0,0,1-.123.016c-.175.2-.349.389-.518.574-.855,4.609-1.761,12.79-1.919,14.219a3.2,3.2,0,0,1,.76.816c.067.118.129.242.185.36a55.619,55.619,0,0,1,.906-11.13C118.017,55.046,118.141,53.42,118.433,51.817Zm-.2-12.75c.264-.282.247-.591-.2-1.109a4.825,4.825,0,0,0-1.193-1.052,1.846,1.846,0,0,0-1.958-.163,4.012,4.012,0,0,0-.546.585,2.964,2.964,0,0,1,2.24.169,2.907,2.907,0,0,1,1.091.861c.1.152.181.337.276.517A.651.651,0,0,1,118.231,39.067Zm-1.109.849c-.371-.534-.636-1.187-1.305-1.333a3.378,3.378,0,0,0-.928-.085c-.254.023-.3.332-.445.49a2.649,2.649,0,0,0-.833,1.339c-.124.726.737.58,1.171.833.264.157.534.985.894.512.265-.343.647-.642.946-.974A8.583,8.583,0,0,0,117.122,39.916Zm-.664,31.538c.085-.034.175-.068.259-.107-.321-.771-.557-1.57-.81-2.369-.394-1.232-2.071-2.1-3.078-2.791a10.618,10.618,0,0,0-7.5-2.115,3.175,3.175,0,0,1,.146.7,13.153,13.153,0,0,1,3.849.057,16.731,16.731,0,0,1,2.92,1.648C114.534,67.667,115.423,69.248,116.458,71.454Zm.147-19.71a.538.538,0,0,1,.017-.062c-.417-.04-.828-.079-1.244-.113,0,.49,0,.951.034,1.407C115.806,52.559,116.205,52.154,116.605,51.744Zm-1.16,6.133c0-.017-.016-.029-.022-.045-.242-.625-.422-1.283-.608-1.936-.45.6-.883,1.221-1.3,1.9a48.967,48.967,0,0,1-3.089,4.614,1.433,1.433,0,0,0,.118.444,1.354,1.354,0,0,1,.624.569.69.69,0,0,1,.079.219,9.826,9.826,0,0,1,1.885,1.148,17,17,0,0,0,1.452.945A57.8,57.8,0,0,1,115.445,57.877Zm-2.593,12.44c.168,1.581,1.232,1.812,2.38,1.559a14.089,14.089,0,0,0-1.249-2.228,1.662,1.662,0,0,1-1.171.292C112.824,70.064,112.84,70.188,112.852,70.317Zm1.412-16.047c-.011-.028-.022-.062-.034-.09a4.2,4.2,0,0,1-.214-1.44c-.152.123-.326.258-.523.416a2.782,2.782,0,0,1-1.024.534c-.388.113-.827-.05-1.215.04-.394.923-1.947.968-2.6.939a20.592,20.592,0,0,1,1.007,3.472,14.558,14.558,0,0,0,.636,2.065c.011.034.017.068.028.1,1.148-1.733,2.121-3.556,3.348-5.272C113.864,54.771,114.061,54.517,114.264,54.27Zm-.737-2.847c-.608-.051-1.221-.1-1.829-.141a.559.559,0,0,1-.523.276c-1.7-.073-3,1.091-4.614,1.4-.332.067-.664.135-1,.208.118.315.237.636.355.945.045-.033.089-.067.146-.106.641-.467,1.12-.209,1.84-.344a.693.693,0,0,1,.1-.011.4.4,0,0,1,.355-.309h1.069c.236,0,.624.168.624-.1,0-.405.4-.681.76-.782.7-.191,1.373.157,1.964-.416C113.054,51.777,113.313,51.648,113.527,51.423Zm-4.94,15.94a1.846,1.846,0,0,0-.13-1.221.732.732,0,0,1-.09-.185,13.609,13.609,0,0,0-3.078.112,4.867,4.867,0,0,1,.1.889,4.706,4.706,0,0,1,.889.107,5.49,5.49,0,0,0,1.238.259C107.878,67.324,108.232,67.341,108.587,67.363Zm-.13-8.789c-.028-.129-.062-.259-.09-.393a15.877,15.877,0,0,0-.591-2.223,1.846,1.846,0,0,0-.427.084,5.33,5.33,0,0,1-.056.794c.354.613.7,1.226,1.012,1.845A.922.922,0,0,1,108.457,58.574Zm-.658-7.427c.135-.056.27-.118.4-.174q-1.941-.195-3.843-.495a9.742,9.742,0,0,1,.743,1.5A12.916,12.916,0,0,0,107.8,51.147Zm-.321,11.58c.315.017.625.051.934.1a13.369,13.369,0,0,0-1.541-3.95,2.3,2.3,0,0,0-.023.286A32.006,32.006,0,0,0,107.478,62.727Zm-1.806-20.369c.805-.135.7-.962.349-1.53-.253-.411-.45-.8-1.013-.8-.287,0-.928-.129-1.159.09-.321.3-.692.557-.681,1.041a7.912,7.912,0,0,0,.028.884c.056.422,1.1-.524,1.272-.6a.654.654,0,0,1,.951.388C105.481,42.161,105.447,42.308,105.672,42.358Zm.506,20.352a32.36,32.36,0,0,1-.624-3.551,13.083,13.083,0,0,1,.27-2.216c-.107-.209-.219-.417-.321-.636-.079-.158-.152-.327-.225-.5a12.6,12.6,0,0,1-1.536-.028c-.152,1.823-.439,3.635-.669,5.334,0,.017-.012.028-.012.045a15.627,15.627,0,0,1,1.593,1.7.531.531,0,0,1,.14-.033C105.261,62.766,105.723,62.727,106.178,62.71Zm-.41-37.479a1.992,1.992,0,0,0,.09-2c-.372-.968-.158-1.733-.777-2.661-1.108-1.666-4.372-3.9-6.453-2.617a6.971,6.971,0,0,1,.309.794.731.731,0,0,1,.107.2c.2.607,1.429.343,1.834.844a4.518,4.518,0,0,0,1.806,1.395,1.072,1.072,0,0,1,.67,1.39c-.366,1.2.7,1.457,1.429,2.087.636.552-.287,1.458-.912.918-.073-.063-.14-.113-.208-.169.006.45,0,.889,0,1.238,0,.613.05,1.249.034,1.868a1.613,1.613,0,0,0,1.063-.31,7.022,7.022,0,0,1,.793-.472c.422-.242.2-1.4.2-1.964,0-.039.011-.068.011-.1A.518.518,0,0,1,105.768,25.231Zm-1.942,29.258c.327.012.653.034.974.028-.13-.377-.264-.765-.405-1.147-.18.022-.36.033-.546.045C103.849,53.775,103.843,54.129,103.826,54.489Zm-.033-15.732c.213-.022.444-.05.68-.062-.551-1.153-2.9.192-3.246.726-.557.85.017,1.429-.214,2.284-.062.226-.287.321-.259.574a10.688,10.688,0,0,1,.1,1.126c0,.433.669.079,1.17-.27a.555.555,0,0,1,.147-.259,1.264,1.264,0,0,1-.237-.608,3.635,3.635,0,0,1,.152-2.093A2.715,2.715,0,0,1,103.793,38.757ZM103.776,69.1c0-1.238.63-2.144.09-3.426a.71.71,0,0,1,.3-.889,6.386,6.386,0,0,0-2.037-2.724c-.866-.782-1.941-1.75-3.145-1.693a9.913,9.913,0,0,1,2.222,2.779,7.716,7.716,0,0,1,.209,3.14s-.006.011-.006.017a13.814,13.814,0,0,1-.18,3.5,5.175,5.175,0,0,1-.315.821.531.531,0,0,1,.028.253c-.068.867,1.035,2.1,1.035,3.191,0,1.316.208,2.5.315,3.8.113,1.327-.41,2.565-.41,3.893v.192a.511.511,0,0,1,.18.028.815.815,0,0,1,.129.045c.456-1.356,1.12-2.234,1.12-3.9,0-1.586.09-3.173.09-4.76C103.4,71.915,103.776,70.525,103.776,69.1Zm-1.435-39.983a14.5,14.5,0,0,0-.028-3.759c-.034-.343-.1-.641-.124-.973a.786.786,0,0,1-.208-.017,20.578,20.578,0,0,0-2.549.349c-.686.18-2.2.411-1.485,1.491a5.451,5.451,0,0,0,1.35,1.671,3.988,3.988,0,0,1,.911,1.081,1.539,1.539,0,0,0,2.066.208Zm-.433,31.059c.45-3.19,1.041-6.921.321-10.094-.231-.051-.468-.09-.7-.14a.021.021,0,0,1-.012-.006c-.225.855-.45,1.7-.675,2.56a.6.6,0,0,1,.073.163c.653,2.161.3,6.876.3,6.876a.952.952,0,0,1-.028.18A6.391,6.391,0,0,1,101.908,60.172Zm.2-37.94c-.045.219-1.131-.428-1.193-.473a2.678,2.678,0,0,1-.776-.793c-.231-.389-.287-.214-.771-.377a4.044,4.044,0,0,1-.827-.377c-.281.506-.743.872-1.069,1.457a2.888,2.888,0,0,1-.793.985.457.457,0,0,1-.152.067c0,.017.005.028.005.057a1.378,1.378,0,0,0,.04.4.581.581,0,0,1,.315.45.557.557,0,0,1,.095.512c.012.039.017.073.029.112a.222.222,0,0,1,.022.063v0a8.839,8.839,0,0,1,4.023-1.137c.236-.028.54-.095.855-.129C101.958,22.772,102.06,22.485,102.11,22.232Zm-.5,22.591a1.92,1.92,0,0,1-1.458-.186,1.008,1.008,0,0,1-.427-.444,5.743,5.743,0,0,1-.833-.214c.073,1.817.377,3.083.433,4.675a20.429,20.429,0,0,1-.118,2.82c-.062.6-.411.945.152.945a1.388,1.388,0,0,1,.152.022c.022-.079.045-.152.067-.23C100.214,49.746,100.861,47.265,101.61,44.823ZM99.933,59.21c.022-1.418.146-2.847.067-4.208-.562,1.417-1.209,2.768-1.789,4.208A3.724,3.724,0,0,1,99.933,59.21Zm-.946-29.737a3.837,3.837,0,0,0-.647-.7,5.02,5.02,0,0,1-1.974-3.235,2.18,2.18,0,0,1-.7-1.35,1.844,1.844,0,0,1-.129-2.307c.2-.214.455-.366.647-.6a7.571,7.571,0,0,0,.439-.838c.3-.45.861-.54.872-1.142a.567.567,0,0,1,.141-.372c-.265-.725-.158-.405-.822-.219s-1.621-.22-2.065.613c-1.013,1.885-1.564,4.305.169,5.948.878.832.5,4.5,1.693,4.085A5.016,5.016,0,0,1,98.987,29.473Zm-4.94,38.144c.175-1.064.968-1.649.867-2.909a4.673,4.673,0,0,0-.2-.912c-.017.045-.028.084-.045.124-.321.8-1.052,1.243-1.412,1.935a7.239,7.239,0,0,1-1.227,1.913.566.566,0,0,1-.6.18,1.288,1.288,0,0,1-.788.8,3.134,3.134,0,0,1-.793.164.993.993,0,0,1,.028.185,3.164,3.164,0,0,0,.039.422.669.669,0,0,1,.687.434c.1.27.675.242.906.275a3.369,3.369,0,0,1,1.041.281A4.937,4.937,0,0,0,94.047,67.617Zm-.585-8.266A20.715,20.715,0,0,0,93.743,57c-.022-.315-.9.675-.962.737a1.128,1.128,0,0,1-.6.242c-.839.214-1.446-.428-2.2-.557a4.127,4.127,0,0,0-2.5.793.561.561,0,0,1-.371.124,2.524,2.524,0,0,1-.259.326c-1.131,1.2-.743,3.264-.051,4.766,0-.005.006-.017.006-.022a1.873,1.873,0,0,1,1.446-.861,2.087,2.087,0,0,1,1.6.264,1.787,1.787,0,0,1,.551,1.109c.051-.017.1-.034.147-.045a.665.665,0,0,1,.731.3,1.513,1.513,0,0,1,.18,1.086,3.118,3.118,0,0,0,.017,1.1c.259-.427.456-.883.76-1.294A13.661,13.661,0,0,0,93.265,63.8c.878-1.474.383-2.481.124-4A.68.68,0,0,1,93.462,59.351ZM92.326,73.08a2.83,2.83,0,0,0-.377-1.429c-.124-.175-.659-.158-.85-.18a3.012,3.012,0,0,1-.816-.2,4.877,4.877,0,0,1,.079,1.474.86.86,0,0,1,.163.034A6.721,6.721,0,0,0,92.326,73.08Zm-2.3,14.748c.748.7.821-1.075.647-1.5-.653-1.581-.5-3.106-.748-4.783a20.025,20.025,0,0,1-.034-4.856c.073-.6.669-2.177.287-2.639a.11.11,0,0,1-.023-.033.608.608,0,0,1-.275-.2,1.344,1.344,0,0,1-.214.18,2.166,2.166,0,0,1-1.986.36c.028.169.05.349.078.529a1.52,1.52,0,0,1-.05,1.716.978.978,0,0,1,.107.135,9.42,9.42,0,0,1,1.254,5.132c-.022,1.215-.208,2.414-.163,3.635.028.737-.377,1.811-.107,2.5.242.624.917.3,1.137-.265C89.973,87.771,90,87.805,90.03,87.828Zm.157-22.445c-.045.011-.09.033-.129.045-.208.079-.388.3-.625.337-.1.012-.191.012-.292.023a2.836,2.836,0,0,1,.292.714,3.4,3.4,0,0,1,.186.715c.028.349.006.456.371.371.631-.152.062-1.249.1-1.682A5.038,5.038,0,0,1,90.187,65.383Zm-1.226,6.4a16.619,16.619,0,0,0-.377-2.684.961.961,0,0,1,.174-.579.682.682,0,0,1-.09-.1c-.517-.7-.236-1.711-.928-2.341a.431.431,0,0,1-.051-.056,12.564,12.564,0,0,1-.18,2.96,10.125,10.125,0,0,0-.141,2.987,9.644,9.644,0,0,0,.451.946C88.494,74.11,88.961,72.208,88.961,71.78ZM87.38,56.757a6.067,6.067,0,0,1,.934-.411,1.275,1.275,0,0,0-.968-.472C87.368,56.166,87.38,56.464,87.38,56.757Zm-.608,18.984a.705.705,0,0,1-.253-.455c-.147-1.171-.417-2.178-.563-3.247a2.238,2.238,0,0,0-.883-.748,2.166,2.166,0,0,1-.889-.631,9.675,9.675,0,0,1-1.165-2.014,60.681,60.681,0,0,0-5.824,3.55c-.011.034-.028.063-.039.091.9.017,2.2.1,2.673-.411.382-.416.849-.36,1.4-.242a2.6,2.6,0,0,1-.05-.568.647.647,0,0,1,1.294,0c-.028,1.086,1.778,1.243,1.479,2.329-.107.394-.241.467-.275.478a.721.721,0,0,1,.354.1,1.058,1.058,0,0,1,.765.95,8.117,8.117,0,0,1-.911,4.907c-.371.5-.81,2.892.675,1.452a9.3,9.3,0,0,1,.883-1.109,2.035,2.035,0,0,1,0-.247.55.55,0,0,1-.107-.569.574.574,0,0,1-.005-.309c.068-.327.349-.619.366-.94a2.442,2.442,0,0,1,.23-.821A8.09,8.09,0,0,1,86.772,75.741Zm-.529-10.083a.287.287,0,0,1,.062-.017,3.047,3.047,0,0,0-.4-1.1,7.232,7.232,0,0,1-.86-5.469c.208-.714.483-1.266.686-1.851-.371-.034-.754-.068-1.137-.068a3.413,3.413,0,0,0-1.44.265,1.226,1.226,0,0,1,.534,1.075c.034.81-1.175.827-1.277.061H82.4a1.152,1.152,0,0,1-.332-.112,1.267,1.267,0,0,1-.512-.4c-.141-.168-.309.147-.506.282a7.888,7.888,0,0,0-.743.551,4.345,4.345,0,0,0,.928,1.846c.76.8.467.821.777,2.054.467,1.873-.321,3.015-.653,4.681.613-.163,1.193-.394,1.812-.523a1.2,1.2,0,0,1,.495-.389,1.379,1.379,0,0,1,.124-.416.65.65,0,0,1,.726-.293c.349.051.427.3.6.175A5.343,5.343,0,0,1,86.243,65.658Zm-.377,4.592c.056-.94.377-2.105.478-3.241a4.83,4.83,0,0,1-1.283.467.594.594,0,0,1-.692.275.88.88,0,0,0-.123-.022.523.523,0,0,1-.09.231c.09.191.3.455.382.624.186.377.428,1.227.833,1.424C85.54,70.086,85.709,70.171,85.866,70.25Zm-5.8-2.921c.292-1.727,1.029-2.875.562-4.72-.292-1.188-1.26-2.189-1.592-3.472-.1-.377-.585-2.133-.72-1.778a4.363,4.363,0,0,1-.822,1.5c-1.2,1.131-1.091,1.778-2.8,1.97-.6.067-.76-.591-.5-1-.624-.613-1.1-1.48-1.683-2.1a.651.651,0,0,0-.084.084.625.625,0,0,0-.214.293,5.386,5.386,0,0,1,.2,1.035c.045.912.2,2.634.2,2.634a.974.974,0,0,1-.023.14.505.505,0,0,1,.214.512c-.107.822-.3,1.519-.326,2.234a1.367,1.367,0,0,1,.427-.073c1.126,0,1.126,1.125,0,1.125a1.329,1.329,0,0,1-.315-.039,2.822,2.822,0,0,0,.164.478,1.722,1.722,0,0,1-.051,1.238c1.542-.011,3.078-.011,4.608.017.917.022,1.846.219,2.768.214A.756.756,0,0,1,80.071,67.329Zm.405,17.2a.665.665,0,0,1-.051-.242c.006-1.7-.377-3.319-.377-4.974a19.3,19.3,0,0,0-.444-3.106,17.986,17.986,0,0,0-.282-2.627c-.005-.017-.005-.034-.011-.051a19.012,19.012,0,0,1-2.341.045c1.2,2.144.782,4.738,1.739,7.022.422,1.019.962,2.048.546,3.207-.242.693-1.362,2.386-.715,2.369a.632.632,0,0,1,.236.04c0-.023.006-.04.006-.057a.89.89,0,0,1,.619-.618.652.652,0,0,1,.76.877.7.7,0,0,1,.242-.039c0-.04-.006-.073-.006-.118a1.52,1.52,0,0,1,.028-.355,4.407,4.407,0,0,0,0-1.052A1.1,1.1,0,0,1,80.476,84.53Zm-.214-15.738a7.63,7.63,0,0,1-1.9-.011c-.169-.022-.338-.034-.512-.056a2.41,2.41,0,0,1,.2,1.48C78.782,69.721,79.519,69.254,80.262,68.792Zm-3.545,1.413a1.029,1.029,0,0,1-.433-.13,8.074,8.074,0,0,1-1.609.754c.05.146.287.732.506,1.272.18-.107.36-.208.535-.332l.354-.236c.056-.136.113-.265.169-.377A6.873,6.873,0,0,0,76.717,70.205Zm-.771-1.6c-1.074-.028-2.161-.006-3.241.028A1.5,1.5,0,0,1,72.57,69c-.033.061-.084.157-.129.258a1.146,1.146,0,0,1,.332.119c.461.27.422.72,1.069.405.45-.22.9-.422,1.361-.608A1.641,1.641,0,0,0,75.946,68.607Zm-1.89,4.107a14.17,14.17,0,0,1-.6-1.468,1.29,1.29,0,0,1-.524-.028c-.579-.158-.692-.665-1.328-.726a.663.663,0,0,1-.647-.647,2.845,2.845,0,0,1,.332-1.165c-.574.017-1.148.028-1.71.028q-7.225,0-14.421-.563a10.271,10.271,0,0,1,.973,1.03,5.169,5.169,0,0,1,.636.94,2.989,2.989,0,0,1,2.346-.4,2.911,2.911,0,0,1,1.857,1.148,2.605,2.605,0,0,1,1.384.225,1.907,1.907,0,0,1,.557.546h.113a1.561,1.561,0,0,1,.562.006,7.146,7.146,0,0,1,2.33,1.637,10.661,10.661,0,0,1,1.48,1.457.609.609,0,0,1,.3.023,6.075,6.075,0,0,1,.607.213c.029,0,.057,0,.079-.011a.4.4,0,0,1,.085-.045C70.365,74.053,72.249,73.581,74.056,72.714ZM71.107,86.443c.872-2.436.085-7.213-2.1-9.413A13.335,13.335,0,0,1,66.628,81.9a22.522,22.522,0,0,1-3.848,4.726c-.028.09-.056.186-.085.276a3.94,3.94,0,0,1,.49,1.328.825.825,0,0,1,.264-.056,1.868,1.868,0,0,0,.237-.118c.163-.107.163-.085.191-.265a4.27,4.27,0,0,0,.045-.6.642.642,0,0,1,.923-.569c.062-.05.124-.112.191-.168a.71.71,0,0,1,.265-.287,2.4,2.4,0,0,0,.3-.524.653.653,0,0,1,.889-.23.665.665,0,0,1,.231.883,3.727,3.727,0,0,1-.276.507,5.407,5.407,0,0,1,.343.877c.039.124,1.013.034,1.238.107a.675.675,0,0,1,.472.625c.012.152-.022,1.035-.179,1.041a1.229,1.229,0,0,1,.939.23c.822.822-.141,2.2,1.125,2.8a.977.977,0,0,1,.119.09,7.823,7.823,0,0,0,.315-1.913A13.3,13.3,0,0,1,71.107,86.443ZM65.07,106.216c-.006-.023,0-.051-.006-.074a.156.156,0,0,1-.011.051C65.059,106.2,65.064,106.21,65.07,106.216Zm-.653-.057c-.05-.045-.09-.028,0,0ZM58.6,102.553a3.369,3.369,0,0,0,.236-1.716,3.525,3.525,0,0,0-.422-.738,18.694,18.694,0,0,1-1.749,1.446c0,.029.011.057.016.09a13.167,13.167,0,0,1,.282,1.407,9.613,9.613,0,0,1-.051,1.137,3.687,3.687,0,0,1-.32,1.131c-.175.4.151.737.382.315a.607.607,0,0,1,.968-.146.012.012,0,0,1,.011-.012,1.736,1.736,0,0,0,.169-.208.667.667,0,0,1,.073-.388A12.141,12.141,0,0,0,58.6,102.553ZM57.89,88.368c-.056.073-.23-.647-.309-1.036-.518.484-1.109.754-1.581.254a3.08,3.08,0,0,1-1.677.624c-.7.011-1.373.248-2.065.293a3.091,3.091,0,0,0-.619.877,1.01,1.01,0,0,1-.383.479c.1.18.192.354.282.529a.584.584,0,0,1,.264.191c.309.383.383.9.765,1.215a3.343,3.343,0,0,0,.653.512.444.444,0,0,0,.157-.039c-.044-.107-.084-.214-.123-.31-.321-.77.934-1.1,1.243-.343.3.732.861.608,1.384.6a.024.024,0,0,1,.017,0,1.6,1.6,0,0,1,.028-.861,2.216,2.216,0,0,1,.552-.856,2.33,2.33,0,0,1,.743-.438,2.928,2.928,0,0,1,.062-.968C57.367,88.733,57.688,88.615,57.89,88.368ZM55.9,94.208c-.033-.045-.067-.09-.1-.135a.637.637,0,0,1-.5-.568,1.335,1.335,0,0,1-1.131-.079.585.585,0,0,1-.079-.051,1.551,1.551,0,0,1-1.525.045,8.042,8.042,0,0,1-1.164-.945,1.09,1.09,0,0,1-.265-.455.51.51,0,0,1-.4-.327c-.355-.81-.827-1.637-1.21-2.448a5.482,5.482,0,0,1-.253-.652c-.107-.057-.225-.124-.338-.192a.3.3,0,0,1-.112-.022,7.979,7.979,0,0,1-2.515-1.019.67.67,0,0,1-.119.062,12.144,12.144,0,0,0,1.716,2.594c.5.614.766,1.4,1.266,2.015.456.562.951,1.125,1.351,1.727a.646.646,0,0,1,.551.433c.18.5.456.929.658,1.407-.112-.27.04-.141.254-.113a1.257,1.257,0,0,1,.478.1,1.13,1.13,0,0,1,.591.754,2.021,2.021,0,0,0,.411.844c.523-.568,1.153-.985,1.727-1.542A5.257,5.257,0,0,0,55.9,94.208Zm-2.177-19.66a5.65,5.65,0,0,0,.444-1.7c-.011-.157-.056-.911-.112-.422a2.207,2.207,0,0,1-.518,1.345.624.624,0,0,1-.63.169.91.91,0,0,1-.54-.355.83.83,0,0,1-.062-.135,33.7,33.7,0,0,0-3.455.186,1.151,1.151,0,0,1-.72-.309,1.128,1.128,0,0,1-.118-.147c-.405.552-1.542.5-1.542.5s-.005-.006-.011-.006a9.218,9.218,0,0,0-2.375.512,1.056,1.056,0,0,1-1.125-.36,6.949,6.949,0,0,0-.36-.624,1.857,1.857,0,0,1-.675-.175.724.724,0,0,1-.124-.107,3.423,3.423,0,0,0,.411,1.891,8.021,8.021,0,0,0,.888,1.53.614.614,0,0,1,.276-.354.655.655,0,0,1,.889.231c.124.259.439.427.647.663a1.087,1.087,0,0,1,.062.107.516.516,0,0,1,.405.181c.186.236.332.511.653.511a2.977,2.977,0,0,0,.45-.033c0-.09-.011-.18-.011-.259a1.03,1.03,0,0,1,.034-.231c-.794-.309-1.542-.776-1.576-1.727-.039-.974,1.188-1.469,1.969-1.5a1.533,1.533,0,0,1,1.272.434,1.5,1.5,0,0,1,.315,1.305c-.05.2-.157.366-.208.568a1.372,1.372,0,0,1-.354.6,1.248,1.248,0,0,1-.175.118.6.6,0,0,1,.062.225c.141.287.084.163.411-.017a3.99,3.99,0,0,0,.726-.506,6.108,6.108,0,0,1,1.041-.945.656.656,0,0,1,.793,1.018c-.017.146.006.281-.006.433,0,.09-.061.27,0,.349.1.124.231.2.315.332a5.788,5.788,0,0,1,1.092-.951A3.3,3.3,0,0,0,53.721,74.548ZM51.583,87.2l.005-.006c-.011,0-.017.006-.028.006Zm-.056.011a1.324,1.324,0,0,1-.2.034c-.231.051-.462.107-.7.146-.112.017-.219.028-.332.04a.467.467,0,0,1,.1.23,4.646,4.646,0,0,0,.225.839,1.045,1.045,0,0,1,.074-.141,3.65,3.65,0,0,1,.416-.473A.558.558,0,0,1,51.527,87.214Zm-3.68-4.7c-.546,1.919,2.177,1.2,2.154-.478a8.866,8.866,0,0,0-.528-3.849.716.716,0,0,1-.062-.259,6.721,6.721,0,0,1-.979.619,1.054,1.054,0,0,1-.855.085C48.415,79.719,48.2,81.284,47.847,82.51Zm1.446-13.132c0-.22.118-.484-.18-.406-.164.04-.484.034-.552.214a4.508,4.508,0,0,1-.191.439c.146.231.3.45.439.681.05.079.084.146.123.2.029-.017.051-.034.079-.051a.771.771,0,0,1,.09-.388A1.738,1.738,0,0,0,49.293,69.378ZM46.9,80.969a1.916,1.916,0,0,0-.652-1.857.506.506,0,0,1-.118-.13c-.045,0-.09,0-.135,0a3.959,3.959,0,0,0,.073,1.237A1.115,1.115,0,0,0,46.9,80.969Zm-.337,1.586c.028-.107.051-.214.079-.32a2.447,2.447,0,0,1-1.7-1.345.653.653,0,0,1-.033-.09C45.028,81.829,45.8,82.15,46.558,82.555ZM44.7,79.264c.006-.242.011-.478-.005-.7a.609.609,0,0,1,.022-.18c-.067-.079-.14-.157-.208-.247a.655.655,0,0,1-.1.056,10.384,10.384,0,0,1,.281,1.069A.017.017,0,0,0,44.7,79.264Zm.13,8.232a3.914,3.914,0,0,1-.231-1.244c0-.017.011-.034.011-.051a.583.583,0,0,1-.208.045,3.99,3.99,0,0,0-1.986.676,5.8,5.8,0,0,1-.1.872,3.523,3.523,0,0,0,1.17-.051A6.572,6.572,0,0,1,44.831,87.5ZM43.8,85c-.061-.113-.124-.225-.185-.343a2.086,2.086,0,0,1-.164-.827,8.464,8.464,0,0,0-1.277.821c.056.242.107.478.147.72A7.486,7.486,0,0,1,43.8,85ZM41.353,66.767a2.464,2.464,0,0,1,.63-.8,1.891,1.891,0,0,0-.86-.163c-.141,0-.434-.045-.687-.051a.813.813,0,0,1,.113.343,2.286,2.286,0,0,1,.022.377,2.225,2.225,0,0,1,.659.557A1.824,1.824,0,0,0,41.353,66.767Zm-.405,19.249a4.506,4.506,0,0,0-.1-.541,1.706,1.706,0,0,1-.208.091,10.465,10.465,0,0,1-3.641.4c-1,0-2.037.445-3.038.27a15.5,15.5,0,0,1-2.155-.585.2.2,0,0,1-.006.062c1.182,1.654,7.084,1.845,8.255.911A6.933,6.933,0,0,1,40.948,86.016Zm-.157,1.907a3.829,3.829,0,0,1-1,.366,11.25,11.25,0,0,1-4,.022c-.518,2.442-3.4,3.523-4.811,5.458a.605.605,0,0,1-.326.518,3.665,3.665,0,0,0-.259.579,6.651,6.651,0,0,0-.371,4.068c.079.428-.113,3.652,1.648,2.628.006-.033,0-.062.006-.1a.656.656,0,0,1,.8-.455,2.777,2.777,0,0,0,.3.107c.062.017.118.034.18.045h.051c.006-.017.017-.028.023-.045a.3.3,0,0,1-.034-.062.709.709,0,0,0-.265-.265A.672.672,0,0,1,32.5,99.9a.681.681,0,0,1,.754-.3.557.557,0,0,0-.1-.264c-.017-.028-.27-.169-.309-.2a3.79,3.79,0,0,1-.338-.332.569.569,0,0,1-.169-.293.517.517,0,0,1,0-.428,6.868,6.868,0,0,0,.164-1.271c.011-.056.022-.124.033-.186a.689.689,0,0,1-.371-.731c-.58-.36-.236-1.407.5-1.17a1.742,1.742,0,0,1,.647.354c2.02-1.03,3.725-3.342,5.514-4.631A5.043,5.043,0,0,0,40.791,87.923ZM31.1,91.817c1.367-1.131,3-2.183,3.421-3.731a6.9,6.9,0,0,1-3.427-1.2,8.206,8.206,0,0,0-.337,2.566,19.738,19.738,0,0,1,.354,2.2A1.581,1.581,0,0,0,31.1,91.817Zm-.7-12.154a.09.09,0,0,0,.028-.017C30.4,79.579,30.387,79.59,30.4,79.663Zm-5.874-1.125a.619.619,0,0,0,0-.253,2.231,2.231,0,0,0-.056-.242,1.6,1.6,0,0,1-1.1-1.216,1.59,1.59,0,0,1-.731-.23c-.726-.417-.754-1.143-.743-1.88a.916.916,0,0,1-.259-.287,2.013,2.013,0,0,1-.163-.382,1.279,1.279,0,0,1-.816.737,2.455,2.455,0,0,1-1.125,0,2.935,2.935,0,0,1-.338.433,2.3,2.3,0,0,1-.742.383,1.439,1.439,0,0,1-1.008-.029.513.513,0,0,1-.292.271,1.773,1.773,0,0,0-.524.461,1.753,1.753,0,0,1-.748.416c-.023.006-.039.006-.056.012a1.814,1.814,0,0,1,.084,1.091,2.944,2.944,0,0,1-.686,1.013,2.4,2.4,0,0,1-1.154.833c-.124.557-.641.844-.934,1.294a4.861,4.861,0,0,1,.023.5c.039-.034.084-.062.123-.1a6.725,6.725,0,0,1,4.7-1.919.646.646,0,0,1,.624.473c.253,1.058-.731,1.71-1.361,2.408-1.379,1.514-2.324,3.32-3.635,4.89a3.653,3.653,0,0,0,2.853-1.97.558.558,0,0,1,.32-.489,40.526,40.526,0,0,1,4.839-2.015,3.052,3.052,0,0,0,1.818-2.132,5.123,5.123,0,0,1,.844-.945A.709.709,0,0,1,24.524,78.538ZM22.847,69c.062-1.03.214-3.3-1.322-3.2-.445.028-.563,2.025-.692,2.526a5.322,5.322,0,0,1-.7,1.581c.237.169.513.18.794.467.321.321.281.793.405,1.193A2.745,2.745,0,0,0,22.847,69Zm-.264,4.6c.022,0,.045,0,.067,0,0,0-.011,0-.022,0Zm-2.268-.186a.694.694,0,0,1,.079-.293,2.076,2.076,0,0,1-.174-.832.871.871,0,0,1,.022-.141c-.18-.394-.36-.81-.36-.833a1.024,1.024,0,0,1-.839-.484.613.613,0,0,1-.422-.934c.012-.022.029-.045.04-.067a.746.746,0,0,1,.3-.507,7.5,7.5,0,0,0,.816-2.177c.084-.389.028-1.007.135-1.514a3.138,3.138,0,0,0-.568-.112c-.141,0-.282-.011-.422,0a.536.536,0,0,0-.169.017.619.619,0,0,1-.681.247.69.69,0,0,1-.146-.067,9.714,9.714,0,0,1-.681,2.042.709.709,0,0,1-.084,1.052,1.017,1.017,0,0,1-1.328.023c-.017.022-.023.045-.04.067-.208.2-.523.209-.759.36a2.213,2.213,0,0,1-1.953.214,7.507,7.507,0,0,1-1.029.855,8.006,8.006,0,0,0-1.615,1.784,4.56,4.56,0,0,0-1.2,2.611,3.3,3.3,0,0,1-.04.427,1.241,1.241,0,0,1,.327.372.613.613,0,0,1-.186.821c.011.124,0,.242.011.327a2.07,2.07,0,0,1-.135.8.608.608,0,0,1,.017.9,2.129,2.129,0,0,1-.506.383.622.622,0,0,1-.209.073,21.03,21.03,0,0,1-1.463,1.7,1.643,1.643,0,0,1,.828.585,2.837,2.837,0,0,1,.236,2.7,4.233,4.233,0,0,0,.956-.14,10.627,10.627,0,0,0,2.656-1.171,3.341,3.341,0,0,0,.152-.669c0-.338-.045-.675-.045-1.007a1.236,1.236,0,0,1,.4-.828c.191-.163.6-.382.579-.669a1.3,1.3,0,0,1,.023-.169v-.006c.011-.033,0-.078.022-.106a.612.612,0,0,1,.6-.557c.45-.012.568-.265.856-.558.118-.118.41-.331.365-.534-.045-.169-.095-.332-.146-.5a1.173,1.173,0,0,1-.552.18,1.956,1.956,0,0,1-.647-.129c.012,0-.011.011-.033.011a.526.526,0,0,1-.034.073v-.011s-.006,0-.006.011v0l-.005.006a.645.645,0,0,1-1.109-.658.878.878,0,0,1,.5-1.041,1.438,1.438,0,0,1,1.424.146.622.622,0,0,1,.326-.1.655.655,0,0,1,.36.118,1.618,1.618,0,0,0,.844-.062c.338-.2.534-.551.906-.715a.9.9,0,0,1,.146-.05.666.666,0,0,1,1.109-.411c.438.411.883-.45,1.187-.664a.622.622,0,0,1,.653,0C19.758,73.693,20.3,73.648,20.315,73.412ZM16,67.358a6.857,6.857,0,0,0,.748-3.326c-.017-.2-.507-1.35-.507-1.423a1.846,1.846,0,0,1-.377.6c-1.164,1.12-3.229,2.982-2.284,4.873a.544.544,0,0,1,.281.27.631.631,0,0,0,.209-.011,4.147,4.147,0,0,1,.467-.27c.028-.012.382-.237.3-.074a1.488,1.488,0,0,1,.253-.371.972.972,0,0,1,.889-.276C15.983,67.352,15.988,67.352,16,67.358Zm-3.1,18.753c-.011.006-.017.012-.028.017-.1.124-.169.214-.169.214a.31.31,0,0,1-.191-.068c-.04.017-.074.034-.107.046-.541.2-.884.669-1.486.759a1.4,1.4,0,0,1-.484,0v.016a.635.635,0,0,1,.079.467c-.034.175,1.486-.433,2-.984C12.6,86.488,12.742,86.32,12.905,86.111Zm-6.071-2.56a1.724,1.724,0,0,0,0-1.682c-.135-.192-.451-.225-.743-.225-.838,1.142-.253,1.784.7,2.037C6.805,83.641,6.817,83.6,6.834,83.551Z"></path><path d="M108.924,39.275c1.126,0,1.126,1.125,0,1.125C108.362,40.4,108.362,39.275,108.924,39.275Z"></path><path d="M91.482,60.291a.649.649,0,0,1,.455,1.1,1.318,1.318,0,0,1-.658.355A.941.941,0,0,1,91,61.742a.626.626,0,0,1-.636-.945A1.213,1.213,0,0,1,91.482,60.291Z"></path><path d="M40.734,77.643a.657.657,0,0,1,0,.912.642.642,0,0,1-.911,0,.779.779,0,0,0-.253-.242c-.017-.006-.062-.017-.09-.028s-.141-.006-.141-.006a.647.647,0,0,1,0-1.294A1.7,1.7,0,0,1,40.734,77.643Z"></path><path d="M45.388,68.556c0,.068-.242.163-.327.208-.309.169-.664.237-.973.417.011.078.022.163.028.242.022.253.349.5.512.658.039.045.152.2.236.3a1.376,1.376,0,0,0,.58-1.345A1.179,1.179,0,0,0,45.388,68.556Zm1.345.36a2.661,2.661,0,0,1-1.255,2.611.673.673,0,0,1-.276.287,1.955,1.955,0,0,1-2.048-.079.924.924,0,0,1,.073-1.283,2.426,2.426,0,0,1-.439-1.356c-.05-.59.343-.9.833-1.136.31-.152.675-.242.973-.417a1.656,1.656,0,0,1,.631-.264C46.248,67.138,46.7,68.021,46.733,68.916Z"></path><path d="M108.283,34.155c.776-.3,1.114.956.343,1.249a8.741,8.741,0,0,1-3.55.213.647.647,0,0,1,0-1.294A7.9,7.9,0,0,0,108.283,34.155Z"></path><path d="M39.89,75.038a.646.646,0,0,1-.348,1.244,3.69,3.69,0,0,0-.856-.164.647.647,0,0,1,0-1.294A5.572,5.572,0,0,1,39.89,75.038Z"></path><path d="M76.936,65.248a.076.076,0,0,1-.005.033C76.92,65.281,76.925,65.264,76.936,65.248Z"></path><path d="M111.361,44.637c.832.028.832,1.322,0,1.294-.58-.022-1.114-.264-1.688-.281-.833-.028-.833-1.322,0-1.294C110.252,44.373,110.787,44.615,111.361,44.637Z"></path><path d="M76.711,64.409a.648.648,0,0,1,.231.884c-.006,0-.006-.006-.011-.012a.076.076,0,0,0,.005-.033c-.011.016-.016.033-.005.033a.646.646,0,0,1-1.289-.033,1.025,1.025,0,0,1,.18-.608A.667.667,0,0,1,76.711,64.409Z"></path><path d="M39.609,73.131a.667.667,0,0,1,.27.889.7.7,0,0,1-.911.23,4.866,4.866,0,0,0-1.5-.191c-.562-.006-.562-1.294,0-1.294a7.017,7.017,0,0,1,1.244.1.484.484,0,0,1-.175-.124c-.112-.135-.2-.135-.41-.168-.091-.017-.659-.017-.659-.017-.562,0-.562-1.294,0-1.294,1.126,0,1.463.045,1.9.562.225.27.388.653.118.917a.713.713,0,0,1-.467.186A3.371,3.371,0,0,1,39.609,73.131Z"></path></g></svg>