<svg height='100px' width='100px'  fill="#000000" xmlns="http://www.w3.org/2000/svg" viewBox="0 0 512 512" x="0px" y="0px"><title>Siberian_Husky</title><g><rect x="183.43" y="211.66" width="14.49" height="18.12" rx="6.45"></rect><path d="M459.49,414.81c-3-6.18-13.55-28.11-26.7-57.17L452,358h0a2,2,0,0,0,1.76-1,2,2,0,0,0-.11-2.07L379.85,246.78c-12.81-21.05-26.25-39.06-40-53.54a1.76,1.76,0,0,0-.4-.32c-.6-.66-1.2-1.31-1.81-2l0,0a115.5,115.5,0,0,0-39.09-27.13l-79-69a2,2,0,0,0-2.38-.18,2,2,0,0,0-.72.79,2,2,0,0,0-.25,1v63.3l-6.11,1.14a81.44,81.44,0,0,0-64.22,61l-1.83,7.61H54.31a2,2,0,0,0-2,2v24.67A48.46,48.46,0,0,0,88,302.78l76.82,25.85-15,86.71a2,2,0,0,0,2,2.34H457.69a2,2,0,0,0,1.8-2.87ZM220.21,106.94l14.61,51.59-1.59.27-13,2.14ZM56.31,256.11V233.44H71.38v14.72A12.3,12.3,0,0,1,59.1,260.44H56.53C56.39,259,56.31,257.56,56.31,256.11Zm97.84,157.57L169,327.63a2,2,0,0,0-1.34-2.24L89.19,299l-.11,0a44.48,44.48,0,0,1-32.3-36.5H59.1a14.3,14.3,0,0,0,14.28-14.28V233.44h72.25a2,2,0,0,0,1.56-.77l.57.59,49.8-48,33.61,70.89a40.68,40.68,0,0,0,36.59,23.14A38.36,38.36,0,0,1,302,300.09l58.71,113.59Zm208.76,0L303.72,299.17a40.33,40.33,0,0,0-36-21.9,38.66,38.66,0,0,1-34.78-22l-34.2-72.14a1,1,0,0,0-1.6-.3L148,230.29l1.81-7.53a77.48,77.48,0,0,1,61.06-58l7.75-1.44a1.94,1.94,0,0,0,.48-.16l14.52-2.38c.82-.15,1.65-.28,2.48-.42l.19,0a1,1,0,0,0,.68-.45,1,1,0,0,0,.12-.81l-16.43-58,75.55,66a2.15,2.15,0,0,0,.54.34,111.11,111.11,0,0,1,38,26.3l0,0c.71.75,1.42,1.51,2.11,2.29a1.75,1.75,0,0,0,.48.38c13.4,14.22,26.56,31.89,39.12,52.54l.06.08L448.21,353.9l-18.51-.31a1.91,1.91,0,0,0-1.7.9,2,2,0,0,0-.16,1.92c12.18,27,22.33,48.29,26.66,57.27Z"></path></g></svg>